<mxfile host="app.diagrams.net" modified="2022-05-19T06:09:00.241Z" agent="5.0 (Macintosh; Intel Mac OS X 10_15_7) AppleWebKit/537.36 (KHTML, like Gecko) Chrome/101.0.4951.64 Safari/537.36" etag="06pTngwXPRVRPCIyk6gP" version="18.0.7" type="github">
  <diagram id="VQGlfhrbpkandj3MjU4r" name="Page-1">
    <mxGraphModel dx="1426" dy="699" grid="1" gridSize="10" guides="1" tooltips="1" connect="1" arrows="1" fold="1" page="1" pageScale="1" pageWidth="827" pageHeight="1169" math="0" shadow="0">
      <root>
        <mxCell id="0" />
        <mxCell id="1" parent="0" />
        <mxCell id="WknlqcLf21E6xy7X-Y4I-1" value="&lt;font style=&quot;font-size: 14px;&quot;&gt;BMS&lt;/font&gt;" style="rounded=0;whiteSpace=wrap;html=1;" parent="1" vertex="1">
          <mxGeometry x="240" y="120" width="80" height="30" as="geometry" />
        </mxCell>
        <mxCell id="WknlqcLf21E6xy7X-Y4I-2" value="" style="endArrow=none;dashed=1;html=1;dashPattern=1 3;strokeWidth=2;rounded=0;fontSize=14;startArrow=none;" parent="1" source="WknlqcLf21E6xy7X-Y4I-9" edge="1">
          <mxGeometry width="50" height="50" relative="1" as="geometry">
            <mxPoint x="280" y="560" as="sourcePoint" />
            <mxPoint x="279.5" y="150" as="targetPoint" />
          </mxGeometry>
        </mxCell>
        <mxCell id="WknlqcLf21E6xy7X-Y4I-4" value="&lt;font style=&quot;font-size: 14px;&quot;&gt;OSS&lt;/font&gt;" style="rounded=0;whiteSpace=wrap;html=1;" parent="1" vertex="1">
          <mxGeometry x="480" y="120" width="80" height="30" as="geometry" />
        </mxCell>
        <mxCell id="WknlqcLf21E6xy7X-Y4I-5" value="" style="endArrow=none;dashed=1;html=1;dashPattern=1 3;strokeWidth=2;rounded=0;fontSize=14;" parent="1" edge="1">
          <mxGeometry width="50" height="50" relative="1" as="geometry">
            <mxPoint x="520" y="760" as="sourcePoint" />
            <mxPoint x="519.5" y="150" as="targetPoint" />
          </mxGeometry>
        </mxCell>
        <mxCell id="WknlqcLf21E6xy7X-Y4I-6" value="&lt;font style=&quot;font-size: 14px;&quot;&gt;DB&lt;/font&gt;" style="rounded=0;whiteSpace=wrap;html=1;" parent="1" vertex="1">
          <mxGeometry x="720" y="120" width="80" height="30" as="geometry" />
        </mxCell>
        <mxCell id="WknlqcLf21E6xy7X-Y4I-7" value="" style="endArrow=none;dashed=1;html=1;dashPattern=1 3;strokeWidth=2;rounded=0;fontSize=14;startArrow=none;" parent="1" source="WknlqcLf21E6xy7X-Y4I-28" edge="1">
          <mxGeometry width="50" height="50" relative="1" as="geometry">
            <mxPoint x="760" y="560" as="sourcePoint" />
            <mxPoint x="759.5" y="150" as="targetPoint" />
          </mxGeometry>
        </mxCell>
        <mxCell id="WknlqcLf21E6xy7X-Y4I-8" value="User" style="shape=umlActor;verticalLabelPosition=bottom;verticalAlign=top;html=1;outlineConnect=0;fontSize=14;" parent="1" vertex="1">
          <mxGeometry x="40" y="41" width="40" height="79" as="geometry" />
        </mxCell>
        <mxCell id="WknlqcLf21E6xy7X-Y4I-9" value="2. Verification" style="rounded=0;whiteSpace=wrap;html=1;fontSize=14;" parent="1" vertex="1">
          <mxGeometry x="260" y="160" width="40" height="120" as="geometry" />
        </mxCell>
        <mxCell id="WknlqcLf21E6xy7X-Y4I-10" value="" style="endArrow=none;dashed=1;html=1;dashPattern=1 3;strokeWidth=2;rounded=0;fontSize=14;startArrow=none;" parent="1" source="WknlqcLf21E6xy7X-Y4I-27" target="WknlqcLf21E6xy7X-Y4I-9" edge="1">
          <mxGeometry width="50" height="50" relative="1" as="geometry">
            <mxPoint x="280" y="560" as="sourcePoint" />
            <mxPoint x="279.5" y="150" as="targetPoint" />
          </mxGeometry>
        </mxCell>
        <mxCell id="WknlqcLf21E6xy7X-Y4I-11" value="" style="endArrow=classic;html=1;rounded=0;fontSize=14;entryX=0;entryY=0;entryDx=0;entryDy=0;" parent="1" target="WknlqcLf21E6xy7X-Y4I-9" edge="1">
          <mxGeometry width="50" height="50" relative="1" as="geometry">
            <mxPoint x="60" y="160" as="sourcePoint" />
            <mxPoint x="160" y="170" as="targetPoint" />
          </mxGeometry>
        </mxCell>
        <mxCell id="WknlqcLf21E6xy7X-Y4I-12" value="1. Upload block file" style="edgeLabel;html=1;align=center;verticalAlign=middle;resizable=0;points=[];fontSize=14;" parent="WknlqcLf21E6xy7X-Y4I-11" vertex="1" connectable="0">
          <mxGeometry x="-0.4889" y="-1" relative="1" as="geometry">
            <mxPoint x="44" y="-11" as="offset" />
          </mxGeometry>
        </mxCell>
        <mxCell id="WknlqcLf21E6xy7X-Y4I-13" value="" style="endArrow=classic;html=1;rounded=0;fontSize=14;entryX=0;entryY=0;entryDx=0;entryDy=0;" parent="1" edge="1">
          <mxGeometry width="50" height="50" relative="1" as="geometry">
            <mxPoint x="300" y="280" as="sourcePoint" />
            <mxPoint x="500" y="280.0000000000002" as="targetPoint" />
          </mxGeometry>
        </mxCell>
        <mxCell id="WknlqcLf21E6xy7X-Y4I-14" value="3. Upload block file" style="edgeLabel;html=1;align=center;verticalAlign=middle;resizable=0;points=[];fontSize=14;" parent="WknlqcLf21E6xy7X-Y4I-13" vertex="1" connectable="0">
          <mxGeometry x="-0.4889" y="-1" relative="1" as="geometry">
            <mxPoint x="44" y="-11" as="offset" />
          </mxGeometry>
        </mxCell>
        <mxCell id="WknlqcLf21E6xy7X-Y4I-15" value="4. Store block file" style="rounded=0;whiteSpace=wrap;html=1;fontSize=14;" parent="1" vertex="1">
          <mxGeometry x="500" y="280" width="40" height="60" as="geometry" />
        </mxCell>
        <mxCell id="WknlqcLf21E6xy7X-Y4I-16" style="edgeStyle=orthogonalEdgeStyle;rounded=0;orthogonalLoop=1;jettySize=auto;html=1;exitX=0.5;exitY=1;exitDx=0;exitDy=0;fontSize=14;" parent="1" source="WknlqcLf21E6xy7X-Y4I-15" target="WknlqcLf21E6xy7X-Y4I-15" edge="1">
          <mxGeometry relative="1" as="geometry" />
        </mxCell>
        <mxCell id="WknlqcLf21E6xy7X-Y4I-17" value="" style="endArrow=none;dashed=1;html=1;dashPattern=1 3;strokeWidth=2;rounded=0;fontSize=14;startArrow=none;" parent="1" source="WknlqcLf21E6xy7X-Y4I-21" edge="1">
          <mxGeometry width="50" height="50" relative="1" as="geometry">
            <mxPoint x="60" y="760" as="sourcePoint" />
            <mxPoint x="59.5" y="150" as="targetPoint" />
          </mxGeometry>
        </mxCell>
        <mxCell id="WknlqcLf21E6xy7X-Y4I-19" value="" style="endArrow=classic;html=1;rounded=0;fontSize=14;" parent="1" edge="1">
          <mxGeometry width="50" height="50" relative="1" as="geometry">
            <mxPoint x="280" y="480" as="sourcePoint" />
            <mxPoint x="80" y="480" as="targetPoint" />
          </mxGeometry>
        </mxCell>
        <mxCell id="WknlqcLf21E6xy7X-Y4I-20" value="7. Output variables" style="edgeLabel;html=1;align=center;verticalAlign=middle;resizable=0;points=[];fontSize=14;" parent="WknlqcLf21E6xy7X-Y4I-19" vertex="1" connectable="0">
          <mxGeometry x="-0.4889" y="-1" relative="1" as="geometry">
            <mxPoint x="1286" y="681" as="offset" />
          </mxGeometry>
        </mxCell>
        <mxCell id="WknlqcLf21E6xy7X-Y4I-44" value="8. Output variables" style="edgeLabel;html=1;align=center;verticalAlign=middle;resizable=0;points=[];fontSize=14;" parent="WknlqcLf21E6xy7X-Y4I-19" vertex="1" connectable="0">
          <mxGeometry x="-0.25" y="4" relative="1" as="geometry">
            <mxPoint x="-25" y="-14" as="offset" />
          </mxGeometry>
        </mxCell>
        <mxCell id="WknlqcLf21E6xy7X-Y4I-22" style="edgeStyle=orthogonalEdgeStyle;rounded=0;orthogonalLoop=1;jettySize=auto;html=1;exitX=0.5;exitY=1;exitDx=0;exitDy=0;fontSize=14;" parent="1" source="WknlqcLf21E6xy7X-Y4I-21" target="WknlqcLf21E6xy7X-Y4I-21" edge="1">
          <mxGeometry relative="1" as="geometry" />
        </mxCell>
        <mxCell id="WknlqcLf21E6xy7X-Y4I-23" style="edgeStyle=orthogonalEdgeStyle;rounded=0;orthogonalLoop=1;jettySize=auto;html=1;exitX=0.5;exitY=1;exitDx=0;exitDy=0;fontSize=14;" parent="1" source="WknlqcLf21E6xy7X-Y4I-21" target="WknlqcLf21E6xy7X-Y4I-21" edge="1">
          <mxGeometry relative="1" as="geometry" />
        </mxCell>
        <mxCell id="WknlqcLf21E6xy7X-Y4I-24" value="" style="endArrow=classic;html=1;rounded=0;fontSize=14;entryX=0;entryY=0;entryDx=0;entryDy=0;" parent="1" edge="1">
          <mxGeometry width="50" height="50" relative="1" as="geometry">
            <mxPoint x="80" y="620" as="sourcePoint" />
            <mxPoint x="260" y="620" as="targetPoint" />
          </mxGeometry>
        </mxCell>
        <mxCell id="WknlqcLf21E6xy7X-Y4I-31" value="10 Submit" style="edgeLabel;html=1;align=center;verticalAlign=middle;resizable=0;points=[];fontSize=14;" parent="WknlqcLf21E6xy7X-Y4I-24" vertex="1" connectable="0">
          <mxGeometry x="-0.0529" y="-5" relative="1" as="geometry">
            <mxPoint x="3" y="-15" as="offset" />
          </mxGeometry>
        </mxCell>
        <mxCell id="WknlqcLf21E6xy7X-Y4I-25" value="" style="endArrow=classic;html=1;rounded=0;fontSize=14;exitX=1;exitY=1;exitDx=0;exitDy=0;entryX=0;entryY=0;entryDx=0;entryDy=0;" parent="1" source="WknlqcLf21E6xy7X-Y4I-27" target="WknlqcLf21E6xy7X-Y4I-28" edge="1">
          <mxGeometry width="50" height="50" relative="1" as="geometry">
            <mxPoint x="280" y="350" as="sourcePoint" />
            <mxPoint x="740" y="350" as="targetPoint" />
          </mxGeometry>
        </mxCell>
        <mxCell id="WknlqcLf21E6xy7X-Y4I-26" value="6. Insert block info" style="edgeLabel;html=1;align=center;verticalAlign=middle;resizable=0;points=[];fontSize=14;" parent="WknlqcLf21E6xy7X-Y4I-25" vertex="1" connectable="0">
          <mxGeometry x="0.1792" y="-4" relative="1" as="geometry">
            <mxPoint x="-39" y="-14" as="offset" />
          </mxGeometry>
        </mxCell>
        <mxCell id="WknlqcLf21E6xy7X-Y4I-28" value="7. Store block info&lt;br&gt;" style="rounded=0;whiteSpace=wrap;html=1;fontSize=14;" parent="1" vertex="1">
          <mxGeometry x="740" y="410" width="40" height="70" as="geometry" />
        </mxCell>
        <mxCell id="WknlqcLf21E6xy7X-Y4I-29" value="" style="endArrow=none;dashed=1;html=1;dashPattern=1 3;strokeWidth=2;rounded=0;fontSize=14;startArrow=none;" parent="1" target="WknlqcLf21E6xy7X-Y4I-28" edge="1">
          <mxGeometry width="50" height="50" relative="1" as="geometry">
            <mxPoint x="760" y="760" as="sourcePoint" />
            <mxPoint x="759.5" y="150" as="targetPoint" />
          </mxGeometry>
        </mxCell>
        <mxCell id="WknlqcLf21E6xy7X-Y4I-32" value="11. Verification" style="rounded=0;whiteSpace=wrap;html=1;fontSize=14;" parent="1" vertex="1">
          <mxGeometry x="260" y="620" width="40" height="70" as="geometry" />
        </mxCell>
        <mxCell id="WknlqcLf21E6xy7X-Y4I-33" value="" style="endArrow=none;dashed=1;html=1;dashPattern=1 3;strokeWidth=2;rounded=0;fontSize=14;" parent="1" target="WknlqcLf21E6xy7X-Y4I-32" edge="1">
          <mxGeometry width="50" height="50" relative="1" as="geometry">
            <mxPoint x="280" y="760" as="sourcePoint" />
            <mxPoint x="280" y="280" as="targetPoint" />
          </mxGeometry>
        </mxCell>
        <mxCell id="WknlqcLf21E6xy7X-Y4I-34" value="" style="endArrow=classic;html=1;rounded=0;fontSize=14;entryX=0;entryY=0;entryDx=0;entryDy=0;exitX=1;exitY=1;exitDx=0;exitDy=0;" parent="1" source="WknlqcLf21E6xy7X-Y4I-32" target="WknlqcLf21E6xy7X-Y4I-35" edge="1">
          <mxGeometry width="50" height="50" relative="1" as="geometry">
            <mxPoint x="280" y="550" as="sourcePoint" />
            <mxPoint x="370" y="550" as="targetPoint" />
          </mxGeometry>
        </mxCell>
        <mxCell id="WknlqcLf21E6xy7X-Y4I-38" value="12. Insert customized variables" style="edgeLabel;html=1;align=center;verticalAlign=middle;resizable=0;points=[];fontSize=14;" parent="WknlqcLf21E6xy7X-Y4I-34" vertex="1" connectable="0">
          <mxGeometry x="0.1773" relative="1" as="geometry">
            <mxPoint x="-39" y="-10" as="offset" />
          </mxGeometry>
        </mxCell>
        <mxCell id="WknlqcLf21E6xy7X-Y4I-35" value="13. Store customized variables" style="rounded=0;whiteSpace=wrap;html=1;fontSize=14;" parent="1" vertex="1">
          <mxGeometry x="740" y="690" width="40" height="70" as="geometry" />
        </mxCell>
        <mxCell id="WknlqcLf21E6xy7X-Y4I-36" value="" style="endArrow=none;dashed=1;html=1;dashPattern=1 3;strokeWidth=2;rounded=0;fontSize=14;" parent="1" target="WknlqcLf21E6xy7X-Y4I-35" edge="1">
          <mxGeometry width="50" height="50" relative="1" as="geometry">
            <mxPoint x="760" y="600" as="sourcePoint" />
            <mxPoint x="760" y="420" as="targetPoint" />
          </mxGeometry>
        </mxCell>
        <mxCell id="WknlqcLf21E6xy7X-Y4I-39" value="" style="endArrow=classic;html=1;rounded=0;fontSize=14;" parent="1" edge="1">
          <mxGeometry width="50" height="50" relative="1" as="geometry">
            <mxPoint x="280" y="760" as="sourcePoint" />
            <mxPoint x="60" y="759" as="targetPoint" />
          </mxGeometry>
        </mxCell>
        <mxCell id="WknlqcLf21E6xy7X-Y4I-40" value="14. Respond" style="edgeLabel;html=1;align=center;verticalAlign=middle;resizable=0;points=[];fontSize=14;" parent="WknlqcLf21E6xy7X-Y4I-39" vertex="1" connectable="0">
          <mxGeometry x="0.18" y="-1" relative="1" as="geometry">
            <mxPoint x="20" y="-9" as="offset" />
          </mxGeometry>
        </mxCell>
        <mxCell id="WknlqcLf21E6xy7X-Y4I-42" value="" style="endArrow=none;dashed=1;html=1;dashPattern=1 3;strokeWidth=2;rounded=0;fontSize=14;entryX=0;entryY=1;entryDx=0;entryDy=0;" parent="1" target="WknlqcLf21E6xy7X-Y4I-28" edge="1">
          <mxGeometry width="50" height="50" relative="1" as="geometry">
            <mxPoint x="280" y="480" as="sourcePoint" />
            <mxPoint x="740" y="420" as="targetPoint" />
          </mxGeometry>
        </mxCell>
        <mxCell id="WknlqcLf21E6xy7X-Y4I-21" value="9. Customize variables" style="rounded=0;whiteSpace=wrap;html=1;fontSize=14;" parent="1" vertex="1">
          <mxGeometry x="40" y="480" width="40" height="140" as="geometry" />
        </mxCell>
        <mxCell id="WknlqcLf21E6xy7X-Y4I-45" value="" style="endArrow=none;dashed=1;html=1;dashPattern=1 3;strokeWidth=2;rounded=0;fontSize=14;" parent="1" target="WknlqcLf21E6xy7X-Y4I-21" edge="1">
          <mxGeometry width="50" height="50" relative="1" as="geometry">
            <mxPoint x="60" y="760" as="sourcePoint" />
            <mxPoint x="59.5" y="150" as="targetPoint" />
          </mxGeometry>
        </mxCell>
        <mxCell id="WknlqcLf21E6xy7X-Y4I-46" value="" style="endArrow=none;dashed=1;html=1;dashPattern=1 3;strokeWidth=2;rounded=0;fontSize=14;entryX=0;entryY=1;entryDx=0;entryDy=0;" parent="1" target="WknlqcLf21E6xy7X-Y4I-35" edge="1">
          <mxGeometry width="50" height="50" relative="1" as="geometry">
            <mxPoint x="280" y="760" as="sourcePoint" />
            <mxPoint x="440" y="380" as="targetPoint" />
          </mxGeometry>
        </mxCell>
        <mxCell id="WknlqcLf21E6xy7X-Y4I-27" value="5. Resolve variables.tf" style="rounded=0;whiteSpace=wrap;html=1;fontSize=14;" parent="1" vertex="1">
          <mxGeometry x="260" y="340" width="40" height="70" as="geometry" />
        </mxCell>
        <mxCell id="WknlqcLf21E6xy7X-Y4I-47" value="" style="endArrow=none;dashed=1;html=1;dashPattern=1 3;strokeWidth=2;rounded=0;fontSize=14;startArrow=none;" parent="1" source="WknlqcLf21E6xy7X-Y4I-32" target="WknlqcLf21E6xy7X-Y4I-27" edge="1">
          <mxGeometry width="50" height="50" relative="1" as="geometry">
            <mxPoint x="280" y="560" as="sourcePoint" />
            <mxPoint x="280" y="280" as="targetPoint" />
          </mxGeometry>
        </mxCell>
        <mxCell id="WknlqcLf21E6xy7X-Y4I-48" value="" style="endArrow=none;dashed=1;html=1;dashPattern=1 3;strokeWidth=2;rounded=0;fontSize=14;exitX=1;exitY=0;exitDx=0;exitDy=0;entryX=0;entryY=1;entryDx=0;entryDy=0;" parent="1" source="WknlqcLf21E6xy7X-Y4I-27" target="WknlqcLf21E6xy7X-Y4I-15" edge="1">
          <mxGeometry width="50" height="50" relative="1" as="geometry">
            <mxPoint x="390" y="430" as="sourcePoint" />
            <mxPoint x="440" y="380" as="targetPoint" />
          </mxGeometry>
        </mxCell>
      </root>
    </mxGraphModel>
  </diagram>
</mxfile>
